<svg width="257" height="70" viewBox="0 0 257 70" fill="none" xmlns="http://www.w3.org/2000/svg">
<path d="M82 33.3008C82 30.6805 82.5776 28.3401 83.7329 26.2795C84.9133 24.1934 86.508 22.578 88.5172 21.4332C90.5514 20.263 92.8243 19.6779 95.3357 19.6779C98.2741 19.6779 100.848 20.4411 103.058 21.9675C105.268 23.4938 106.813 25.6053 107.692 28.3019H101.627C101.024 27.0299 100.17 26.0759 99.0652 25.44C97.9853 24.804 96.7296 24.486 95.298 24.486C93.7661 24.486 92.3973 24.8548 91.1918 25.5926C90.0115 26.3049 89.0822 27.3225 88.4042 28.6453C87.7512 29.9682 87.4247 31.52 87.4247 33.3008C87.4247 35.0561 87.7512 36.6079 88.4042 37.9562C89.0822 39.2791 90.0115 40.3094 91.1918 41.0471C92.3973 41.7594 93.7661 42.1156 95.298 42.1156C96.7296 42.1156 97.9853 41.7976 99.0652 41.1616C100.17 40.5002 101.024 39.5335 101.627 38.2615H107.692C106.813 40.9835 105.268 43.1077 103.058 44.6341C100.873 46.1351 98.2992 46.8855 95.3357 46.8855C92.8243 46.8855 90.5514 46.3131 88.5172 45.1684C86.508 43.9981 84.9133 42.3827 83.7329 40.3221C82.5776 38.2615 82 35.9211 82 33.3008Z" fill="#56B280"/>
<path d="M110.84 36.0101C110.84 33.8732 111.255 31.9779 112.084 30.3244C112.938 28.6708 114.08 27.3988 115.512 26.5084C116.968 25.618 118.588 25.1728 120.371 25.1728C121.928 25.1728 123.285 25.4908 124.44 26.1268C125.62 26.7628 126.562 27.5642 127.265 28.5309V25.5163H132.577V46.6566H127.265V43.5657C126.587 44.5578 125.645 45.3846 124.44 46.046C123.26 46.682 121.891 47 120.334 47C118.576 47 116.968 46.5421 115.512 45.6263C114.08 44.7104 112.938 43.4257 112.084 41.7722C111.255 40.0932 110.84 38.1725 110.84 36.0101ZM127.265 36.0864C127.265 34.789 127.014 33.6824 126.512 32.7666C126.01 31.8253 125.331 31.113 124.478 30.6296C123.624 30.1208 122.707 29.8664 121.728 29.8664C120.748 29.8664 119.844 30.1081 119.015 30.5915C118.186 31.0748 117.508 31.7871 116.981 32.7284C116.479 33.6442 116.228 34.7381 116.228 36.0101C116.228 37.2821 116.479 38.4014 116.981 39.3681C117.508 40.3094 118.186 41.0344 119.015 41.5432C119.869 42.052 120.773 42.3064 121.728 42.3064C122.707 42.3064 123.624 42.0647 124.478 41.5814C125.331 41.0726 126.01 40.3603 126.512 39.4444C127.014 38.5032 127.265 37.3838 127.265 36.0864Z" fill="#56B280"/>
<path d="M149.293 25.211C151.779 25.211 153.789 26.0123 155.321 27.615C156.852 29.1923 157.618 31.4055 157.618 34.2548V46.6566H152.344V34.9798C152.344 33.3008 151.93 32.0161 151.101 31.1257C150.273 30.2099 149.142 29.752 147.711 29.752C146.254 29.752 145.099 30.2099 144.245 31.1257C143.416 32.0161 143.002 33.3008 143.002 34.9798V46.6566H137.728V25.5163H143.002V28.1493C143.705 27.2334 144.597 26.5211 145.677 26.0123C146.782 25.4781 147.987 25.211 149.293 25.211Z" fill="#56B280"/>
<path d="M161.278 36.0101C161.278 33.8732 161.692 31.9779 162.521 30.3244C163.375 28.6708 164.53 27.3988 165.987 26.5084C167.443 25.618 169.063 25.1728 170.846 25.1728C172.202 25.1728 173.496 25.4781 174.726 26.0887C175.957 26.6738 176.936 27.4624 177.665 28.4545V18.4186H183.014V46.6566H177.665V43.5275C177.012 44.5705 176.095 45.41 174.915 46.046C173.734 46.682 172.366 47 170.808 47C169.05 47 167.443 46.5421 165.987 45.6263C164.53 44.7104 163.375 43.4257 162.521 41.7722C161.692 40.0932 161.278 38.1725 161.278 36.0101ZM177.702 36.0864C177.702 34.789 177.451 33.6824 176.949 32.7666C176.447 31.8253 175.769 31.113 174.915 30.6296C174.061 30.1208 173.144 29.8664 172.165 29.8664C171.185 29.8664 170.281 30.1081 169.452 30.5915C168.624 31.0748 167.945 31.7871 167.418 32.7284C166.916 33.6442 166.665 34.7381 166.665 36.0101C166.665 37.2821 166.916 38.4014 167.418 39.3681C167.945 40.3094 168.624 41.0344 169.452 41.5432C170.306 42.052 171.21 42.3064 172.165 42.3064C173.144 42.3064 174.061 42.0647 174.915 41.5814C175.769 41.0726 176.447 40.3603 176.949 39.4444C177.451 38.5032 177.702 37.3838 177.702 36.0864Z" fill="#56B280"/>
<path d="M193.439 18.4186V46.6566H188.165V18.4186H193.439Z" fill="#56B280"/>
<path d="M218.051 35.6285C218.051 36.3917 218 37.0786 217.9 37.6891H202.643C202.769 39.2155 203.296 40.4111 204.225 41.2761C205.154 42.141 206.297 42.5735 207.653 42.5735C209.612 42.5735 211.006 41.7213 211.835 40.0168H217.523C216.92 42.052 215.765 43.731 214.057 45.0539C212.35 46.3513 210.253 47 207.766 47C205.757 47 203.949 46.5548 202.342 45.6644C200.759 44.7486 199.516 43.4639 198.612 41.8103C197.733 40.1568 197.294 38.2488 197.294 36.0864C197.294 33.8986 197.733 31.9779 198.612 30.3244C199.491 28.6708 200.722 27.3988 202.304 26.5084C203.886 25.618 205.707 25.1728 207.766 25.1728C209.75 25.1728 211.521 25.6053 213.078 26.4703C214.66 27.3352 215.878 28.569 216.732 30.1717C217.611 31.749 218.051 33.5679 218.051 35.6285ZM212.588 34.1021C212.563 32.7284 212.073 31.6345 211.119 30.8204C210.165 29.9809 208.997 29.5612 207.616 29.5612C206.31 29.5612 205.205 29.9682 204.301 30.7823C203.422 31.5709 202.882 32.6775 202.681 34.1021H212.588Z" fill="#56B280"/>
<path d="M220.544 36.0101C220.544 33.8732 220.958 31.9779 221.787 30.3244C222.641 28.6708 223.784 27.3988 225.215 26.5084C226.672 25.618 228.292 25.1728 230.075 25.1728C231.632 25.1728 232.988 25.4908 234.143 26.1268C235.324 26.7628 236.266 27.5642 236.969 28.5309V25.5163H242.28V46.6566H236.969V43.5657C236.291 44.5578 235.349 45.3846 234.143 46.046C232.963 46.682 231.594 47 230.037 47C228.279 47 226.672 46.5421 225.215 45.6263C223.784 44.7104 222.641 43.4257 221.787 41.7722C220.958 40.0932 220.544 38.1725 220.544 36.0101ZM236.969 36.0864C236.969 34.789 236.718 33.6824 236.215 32.7666C235.713 31.8253 235.035 31.113 234.181 30.6296C233.327 30.1208 232.411 29.8664 231.431 29.8664C230.452 29.8664 229.547 30.1081 228.719 30.5915C227.89 31.0748 227.212 31.7871 226.684 32.7284C226.182 33.6442 225.931 34.7381 225.931 36.0101C225.931 37.2821 226.182 38.4014 226.684 39.3681C227.212 40.3094 227.89 41.0344 228.719 41.5432C229.573 42.052 230.477 42.3064 231.431 42.3064C232.411 42.3064 233.327 42.0647 234.181 41.5814C235.035 41.0726 235.713 40.3603 236.215 39.4444C236.718 38.5032 236.969 37.3838 236.969 36.0864Z" fill="#56B280"/>
<path d="M257 29.9046H253.346V46.6566H247.997V29.9046H245.623V25.5163H247.997V24.4478C247.997 21.853 248.725 19.945 250.181 18.7239C251.638 17.5028 253.836 16.9304 256.774 17.0067V21.5095C255.493 21.4841 254.602 21.7003 254.099 22.1582C253.597 22.6162 253.346 23.4429 253.346 24.6386V25.5163H257V29.9046Z" fill="#56B280"/>
<g clip-path="url(#clip0_13_2)">
<mask id="mask0_13_2" style="mask-type:alpha" maskUnits="userSpaceOnUse" x="0" y="0" width="69" height="70">
<circle cx="34.5" cy="35" r="34.5" fill="#F578A5"/>
</mask>
<g mask="url(#mask0_13_2)">
<circle cx="34.5" cy="35" r="34.5" fill="#56B280"/>
<path d="M18.6301 69V69.7547H19.3848H51.3848H52.1395V69V55.5729C52.1395 54.3396 51.162 53.3282 49.9294 53.2862L20.9961 52.2998C19.7026 52.2557 18.6301 53.2923 18.6301 54.5865V69Z" fill="white" stroke="white" stroke-width="1.50938"/>
<g clip-path="url(#clip1_13_2)">
<path d="M25.2776 24.7254C32.3085 14.9497 29.2842 6.99253 29.2927 6.98309C29.1436 6.5846 29.3459 6.1408 29.7444 5.99172C29.9454 5.91653 30.1687 5.92865 30.3603 6.02507C43.0498 12.0971 48.5104 19.9355 49.5561 27.0224C49.9718 29.7757 49.7119 32.5889 48.7989 35.2196C47.9623 37.647 46.5686 39.8447 44.7298 41.6365C41.1926 45.0525 36.2493 46.6272 31.3706 45.0308C30.1226 44.6236 28.945 44.0263 27.8793 43.2598C25.7415 41.7255 24.1199 39.5782 23.2291 37.1021C22.2839 34.4539 22.2538 31.5654 23.1437 28.8981C23.6352 27.4052 24.3551 25.9976 25.2776 24.7254Z" fill="white"/>
<path d="M29.4473 7.23546C29.1383 6.94312 29.1246 6.45556 29.417 6.14654C29.7093 5.83753 30.1968 5.82389 30.5059 6.11622C30.5286 6.13773 30.5499 6.16059 30.5699 6.18472C30.5982 6.21021 36.7248 12.6322 37.6001 25.0445L37.6092 25.1609C37.7982 28.0619 37.7048 30.9745 37.3307 33.8575L41.52 30.647C41.8709 30.4064 42.3504 30.4958 42.5909 30.8467C42.8086 31.1643 42.7584 31.594 42.4732 31.8528L36.9983 36.0357C35.7726 43.2415 31.4519 53.4357 37.1717 59.8161C37.4472 60.1403 37.4077 60.6264 37.0835 60.9019C36.7749 61.1641 36.316 61.1426 36.0333 60.8527C29.1743 53.2074 34.1652 43.7364 35.5312 35.5462L35.5491 35.4313C36.1045 32.1721 36.2949 28.8611 36.1167 25.5597L31.1924 21.9518C30.8412 21.7117 30.7511 21.2324 30.9912 20.8811C31.2313 20.5299 31.7106 20.4398 32.0619 20.6799C32.0764 20.6898 32.0907 20.7003 32.1044 20.7112L35.9199 23.5202C34.7297 12.7606 29.4696 7.26126 29.4473 7.23546Z" fill="#56B280"/>
</g>
</g>
</g>
<defs>
<clipPath id="clip0_13_2">
<rect width="69" height="69" fill="white" transform="translate(0 0.5)"/>
</clipPath>
<clipPath id="clip1_13_2">
<rect width="42.343" height="42.343" fill="white" transform="translate(4.06689 34.3001) rotate(-48)"/>
</clipPath>
</defs>
</svg>
